{"glyphs":{"1":{"ha":2042,"x_min":14,"x_max":2028,"o":"m 257 0 l 1014 0 l 2028 1014 l 2028 3014 l 1250 3014 l 14 1778 l 14 1243 l 257 1243 l 257 0 l 257 0 m 285 1250 l 264 1271 l 42 1271 l 42 1764 l 264 1986 l 1000 1986 l 1000 28 l 285 28 l 285 1250 l 285 1250 m 1042 2014 l 2000 2972 l 2000 1028 l 1042 69 l 1042 2014 l 1042 2014 m 1264 2986 l 1958 2986 l 1000 2028 l 306 2028 l 1264 2986 l 1264 2986 z "},"2":{"ha":3042,"x_min":14,"x_max":3028,"o":"m 14 0 l 2014 0 l 3028 1014 l 3028 1521 l 2556 1521 l 3028 2014 l 3028 3014 l 1250 3014 l 14 1778 l 14 1250 l 514 1250 l 764 1486 l 958 1486 l 14 528 l 14 0 m 42 514 l 764 1243 l 1528 1243 l 1528 1514 l 507 1514 l 507 1278 l 42 1278 l 42 1764 l 264 1986 l 2000 1986 l 2000 1028 q 1886 1026 1963 1026 q 1713 1024 1810 1025 q 1508 1021 1615 1022 q 1303 1018 1400 1019 q 1128 1015 1206 1017 q 1014 1014 1051 1014 l 1000 1014 l 514 528 q 513 526 514 528 q 513 521 513 524 q 513 517 513 519 q 514 514 514 514 q 522 501 517 508 q 528 493 526 493 l 2000 493 l 2000 28 l 42 28 l 42 514 m 2042 514 l 3000 1472 l 3000 1028 l 2042 69 l 2042 514 m 1014 993 l 2014 993 l 2514 1486 l 2958 1486 l 2000 528 l 556 528 l 1014 993 m 2042 2014 l 3000 2972 l 3000 2028 l 2042 1069 l 2042 2014 m 1014 1486 l 1500 1486 l 1500 1278 l 806 1278 l 1014 1486 m 542 1486 l 708 1486 l 542 1319 l 542 1486 m 1264 2986 l 2958 2986 l 2000 2028 l 306 2028 l 1264 2986 z "},"3":{"ha":3042,"x_min":14,"x_max":3028,"o":"m 14 0 l 2028 0 l 3028 1000 l 3028 3014 l 1028 3014 l 14 2000 l 14 1507 l 222 1507 l 14 1278 l 14 743 l 222 743 l 14 514 l 14 0 l 14 0 m 42 507 l 514 507 l 514 757 l 42 757 l 42 1271 l 514 1271 l 514 1521 l 42 1521 l 42 1986 l 2000 1986 l 2000 28 l 42 28 l 42 507 l 42 507 m 2042 2000 l 3000 2958 l 3000 1000 l 2042 42 l 2042 2000 l 2042 2000 m 264 736 l 500 736 l 500 528 l 56 528 l 264 736 l 264 736 m 264 1500 l 500 1500 l 500 1292 l 56 1292 l 264 1500 l 264 1500 m 1028 2986 l 2986 2986 l 2028 2028 l 69 2028 l 1028 2986 l 1028 2986 z "},"4":{"ha":3042,"x_min":14,"x_max":3028,"o":"m 757 0 l 1514 0 l 2535 1014 l 2535 1264 l 3028 1764 l 3028 2271 l 2535 2271 l 2535 3014 l 2000 3014 l 1535 2569 l 1535 3014 l 1000 3014 l 14 2028 l 14 743 l 757 743 l 757 0 l 757 0 m 785 750 l 764 771 l 42 771 l 42 1986 l 507 1986 l 507 1250 l 1035 1250 l 1035 1986 l 1507 1986 l 1507 1264 l 1528 1243 l 2000 1243 l 2000 771 l 1528 771 l 1507 750 l 1507 28 l 785 28 l 785 750 l 785 750 m 1542 743 l 2014 743 l 2500 1222 l 2500 1028 l 1542 69 l 1542 743 l 1542 743 m 2042 1264 l 3000 2222 l 3000 1778 l 2042 819 l 2042 1264 l 2042 1264 m 1000 1722 l 1000 1278 l 556 1278 l 1000 1722 l 1000 1722 m 2514 2236 l 2958 2236 l 2000 1278 l 1556 1278 l 2514 2236 l 2514 2236 m 542 2014 l 1500 2972 l 1500 2528 l 1007 2028 l 1007 1778 l 542 1319 l 542 2014 l 542 2014 m 1542 2014 l 2500 2972 l 2500 2278 l 1542 1319 l 1542 2014 l 1542 2014 m 1014 2986 l 1458 2986 l 500 2028 l 56 2028 l 1014 2986 l 1014 2986 m 2014 2986 l 2458 2986 l 1500 2028 l 1056 2028 l 2014 2986 l 2014 2986 z "},"5":{"ha":3042,"x_min":14,"x_max":3028,"o":"m 14 0 l 2014 0 l 3028 1014 l 3028 2271 l 2806 2271 l 3028 2514 l 3028 3014 l 1000 3014 l 14 2028 l 14 1250 l 361 889 l 14 528 l 14 0 m 42 493 l 1528 493 l 1528 771 l 528 771 l 42 1264 l 42 1986 l 2000 1986 l 2000 1521 l 514 1521 l 514 1243 l 2000 1243 l 2000 28 l 42 28 l 42 493 m 2042 1264 l 3000 2222 l 3000 1028 l 2042 69 l 2042 1264 m 389 861 q 410 842 394 856 q 444 812 426 828 q 478 783 463 796 q 500 764 493 769 q 516 751 506 758 q 528 743 526 743 l 1500 743 l 1500 528 l 56 528 l 389 861 m 764 1493 l 2014 1493 l 2764 2236 l 2958 2236 l 2000 1278 l 556 1278 l 764 1493 m 542 1486 l 708 1486 l 542 1319 l 542 1486 m 2042 2014 l 3000 2972 l 3000 2528 l 2042 1569 l 2042 2014 m 1014 2986 l 2958 2986 l 2000 2028 l 56 2028 l 1014 2986 z "},"6":{"ha":3042,"x_min":14,"x_max":3028,"o":"m 14 0 l 2014 0 l 3028 1014 l 3028 3014 l 1000 3014 l 14 2028 l 14 0 m 42 1986 l 507 1986 l 507 1264 l 528 1243 l 2000 1243 l 2000 28 l 42 28 l 42 1986 m 2042 1264 l 2785 2014 l 2785 2764 l 3000 2972 l 3000 1028 l 2042 69 l 2042 1264 m 514 500 l 1528 500 l 1528 764 l 514 764 l 514 500 m 764 736 l 1500 736 l 1500 528 l 556 528 l 764 736 m 542 736 l 708 736 l 542 569 l 542 736 m 1264 1986 l 2708 1986 l 2000 1278 l 556 1278 l 1264 1986 m 542 2014 l 1250 2722 l 1250 2028 l 542 1319 l 542 2014 m 1014 2986 l 2958 2986 l 2750 2778 l 1264 2764 l 1250 2764 l 500 2028 l 56 2028 l 1014 2986 m 1292 2736 l 2750 2736 l 2750 2028 l 1292 2028 l 1292 2736 z "},"7":{"ha":3042,"x_min":14,"x_max":3028,"o":"m 1507 0 l 2014 0 l 3028 1014 l 3028 3014 l 1000 3014 l 14 2028 l 14 1493 l 958 1493 l 764 1278 l 764 743 l 1507 743 l 1507 0 l 1507 0 m 1535 750 l 1514 771 l 792 771 l 792 1243 l 1528 1243 l 1528 1521 l 42 1521 l 42 1986 l 2000 1986 l 2000 28 l 1535 28 l 1535 750 l 1535 750 m 2042 2014 l 3000 2972 l 3000 1028 l 2042 69 l 2042 2014 l 2042 2014 m 1014 1486 l 1500 1486 l 1500 1278 l 806 1278 l 1014 1486 l 1014 1486 m 1014 2986 l 2958 2986 l 2000 2028 l 56 2028 l 1014 2986 l 1014 2986 z "},"8":{"ha":3042,"x_min":14,"x_max":3028,"o":"m 264 0 l 1764 0 l 3028 1264 l 3028 1763 l 2792 2014 l 3028 2264 l 3028 2764 l 2778 3014 l 1250 3014 l 14 1778 l 14 1250 l 236 1014 l 14 778 l 14 250 l 264 0 l 264 0 m 42 264 l 42 764 l 276 1014 l 42 1264 l 42 1764 l 264 1986 l 1764 1986 l 2000 1750 l 2000 1278 l 1751 1014 l 2000 750 l 2000 278 l 1750 28 l 278 28 l 42 264 l 42 264 m 2042 764 l 3000 1722 l 3000 1278 l 2042 319 l 2042 764 l 2042 764 m 764 375 l 1278 375 l 1278 625 l 764 625 l 764 375 l 764 375 m 1000 597 l 1250 597 l 1250 403 l 806 403 l 1000 597 l 1000 597 m 792 597 l 944 597 l 792 444 l 792 597 l 792 597 m 1792 1014 l 2764 1986 l 2986 1764 l 2014 792 l 1792 1014 l 1792 1014 m 2042 1764 l 3000 2722 l 3000 2278 l 2042 1319 l 2042 1764 l 2042 1764 m 750 1333 l 1264 1333 l 1264 1583 l 750 1583 l 750 1333 l 750 1333 m 986 1556 l 1236 1556 l 1236 1361 l 792 1361 l 986 1556 l 986 1556 m 778 1556 l 931 1556 l 778 1403 l 778 1556 l 778 1556 m 1792 2014 l 2764 2986 l 2986 2764 l 2014 1792 l 1792 2014 l 1792 2014 m 1264 2986 l 2708 2986 l 1750 2028 l 306 2028 l 1264 2986 l 1264 2986 z "},"9":{"ha":3042,"x_min":14,"x_max":3028,"o":"m 1507 0 l 2014 0 l 2396 375 l 2396 1125 l 3028 1764 l 3028 3014 l 1000 3014 l 14 2028 l 14 743 l 1507 743 l 1507 0 l 1507 0 m 1535 750 l 1514 771 l 42 771 l 42 1986 l 2000 1986 l 2000 28 l 1535 28 l 1535 750 l 1535 750 m 2042 2014 l 3000 2972 l 3000 1778 l 2368 1139 l 2368 389 l 2042 69 l 2042 2014 l 2042 2014 m 514 1250 l 1528 1250 l 1528 1514 l 514 1514 l 514 1250 l 514 1250 m 764 1486 l 1500 1486 l 1500 1278 l 556 1278 l 764 1486 l 764 1486 m 542 1486 l 708 1486 l 542 1319 l 542 1486 l 542 1486 m 1014 2986 l 2958 2986 l 2000 2028 l 56 2028 l 1014 2986 l 1014 2986 z "}," ":{"ha":694,"x_min":0,"x_max":0,"o":""},"!":{"ha":1542,"x_min":14,"x_max":1528,"o":"m 14 0 l 514 0 l 1528 1014 l 1528 1521 l 1306 1521 l 1486 1722 q 1497 1726 1488 1722 q 1517 1738 1506 1731 q 1528 1750 1528 1744 l 1528 3014 l 1000 3014 l 14 2028 l 14 743 l 208 743 l 14 528 l 14 0 m 42 486 l 500 486 l 500 28 l 42 28 l 42 486 m 542 514 l 1500 1472 l 1500 1028 l 542 69 l 542 514 m 264 743 l 514 743 l 1264 1486 l 1458 1486 l 500 528 l 56 528 l 264 743 m 42 1986 l 500 1986 l 500 778 l 42 778 l 42 1986 m 542 2014 l 1500 2972 l 1500 1778 l 542 819 l 542 2014 m 1014 2986 l 1458 2986 l 500 2028 l 56 2028 l 1014 2986 z "},"?":{"ha":3042,"x_min":14,"x_max":3028,"o":"m 1014 0 l 1514 0 l 2528 1014 l 2528 1271 l 2306 1271 l 2535 1514 l 2535 1764 l 3028 2264 l 3028 3000 l 3000 3014 l 2000 2028 l 56 2028 l 1014 2993 l 2889 2993 l 2889 3014 l 1000 3014 l 14 2028 l 14 1000 l 514 1000 l 1014 1486 l 1500 1486 l 1500 1278 l 1014 778 l 1014 493 l 1208 493 l 1014 278 l 1014 0 l 1014 0 m 1042 236 l 1500 236 l 1500 28 l 1042 28 l 1042 236 l 1042 236 m 1542 264 l 2500 1222 l 2500 1028 l 1542 69 l 1542 264 l 1542 264 m 1264 493 l 1514 493 l 2264 1236 l 2458 1236 l 1500 278 l 1056 278 l 1264 493 l 1264 493 m 1042 764 l 1528 1264 l 1528 1514 l 507 1514 l 507 1028 l 42 1028 l 42 1986 l 2000 1986 l 2000 1278 l 1507 778 l 1507 528 l 1042 528 l 1042 764 l 1042 764 m 1542 764 l 2500 1722 l 2500 1528 l 1542 569 l 1542 764 l 1542 764 m 542 1486 l 958 1486 l 542 1069 l 542 1486 l 542 1486 m 2042 2014 l 3000 2972 l 3000 2278 l 2042 1319 l 2042 2014 l 2042 2014 z "},"A":{"ha":3042,"x_min":14,"x_max":3028,"o":"m 14 0 l 764 0 l 1257 472 l 1257 0 l 2014 0 l 3028 1014 l 3028 3014 l 1000 3014 l 14 2028 l 14 0 m 42 1986 l 757 1986 l 757 1000 l 1285 1000 l 1285 1986 l 2000 1986 l 2000 28 l 1285 28 l 1285 764 l 757 764 l 757 28 l 42 28 l 42 1986 m 792 736 l 1250 736 l 1250 528 l 792 69 l 792 736 m 2042 2014 l 3000 2972 l 3000 1028 l 2042 69 l 2042 2014 m 1139 1375 l 1139 1389 q 1140 1500 1139 1425 q 1143 1669 1142 1575 q 1146 1868 1144 1764 q 1149 2067 1147 1972 q 1151 2236 1150 2161 q 1153 2347 1151 2311 l 1569 2347 l 1257 2028 l 1257 1410 l 1167 1410 l 1167 1382 l 1250 1382 l 1250 1028 l 806 1028 l 1139 1375 m 792 2014 l 1111 2333 l 1111 1389 l 792 1069 l 792 2014 m 1014 2986 l 2958 2986 l 2000 2028 l 1306 2028 l 1638 2375 l 1125 2389 l 750 2028 l 56 2028 l 1014 2986 m 1514 2778 l 1347 2611 l 1861 2611 l 2000 2750 l 2000 2778 l 1514 2778 m 1514 2750 l 1514 2639 l 1403 2639 l 1514 2750 m 1556 2750 l 1972 2750 l 1861 2639 l 1556 2639 l 1556 2750 z "},"B":{"ha":3042,"x_min":14,"x_max":3028,"o":"m 14 0 l 2014 0 l 3028 1014 l 3028 3014 l 1000 3014 l 14 2028 l 14 0 l 14 0 m 42 1986 l 2000 1986 l 2000 28 l 42 28 l 42 1986 l 42 1986 m 2042 2014 l 3000 2972 l 3000 1028 l 2042 69 l 2042 2014 l 2042 2014 m 1014 2986 l 2958 2986 l 2000 2028 l 56 2028 l 1014 2986 l 1014 2986 m 764 2278 l 764 2264 l 1500 2264 l 1500 2285 l 958 2285 l 958 2417 l 1653 2417 l 1528 2278 l 1528 2264 l 1667 2403 l 1667 2444 l 931 2444 l 764 2278 l 764 2278 m 917 2403 l 917 2292 l 806 2292 l 917 2403 l 917 2403 m 1126 2653 l 1931 2653 l 2097 2819 l 2097 2847 l 1306 2847 l 1126 2653 l 1126 2653 m 1292 2792 l 1292 2681 l 1181 2681 l 1292 2792 l 1292 2792 m 1333 2819 l 2069 2819 l 1931 2681 l 1333 2681 l 1333 2819 l 1333 2819 z "},"C":{"ha":3042,"x_min":14,"x_max":3028,"o":"m 14 0 l 2014 0 l 3028 1014 l 3028 3014 l 1000 3014 l 14 2028 l 14 0 m 42 1986 l 2000 1986 l 2000 28 l 42 28 l 42 1986 m 2042 2014 l 2257 2222 l 2257 514 l 2278 514 l 2785 1014 l 2785 2764 l 3000 2972 l 3000 1028 l 2042 69 l 2042 2014 m 2292 986 l 2708 986 l 2292 569 l 2292 986 m 2285 2250 l 2264 2271 l 1292 2271 l 1292 2736 l 2750 2736 l 2750 1028 l 2285 1028 l 2285 2250 m 1014 2986 l 2958 2986 l 2750 2778 l 1264 2764 l 1250 2764 l 764 2278 q 763 2276 764 2278 q 763 2271 763 2274 q 763 2267 763 2269 q 764 2264 764 2264 q 772 2251 767 2260 q 778 2243 776 2243 l 2208 2243 l 2000 2028 l 56 2028 l 1014 2986 m 1250 2722 l 1250 2278 l 806 2278 l 1250 2722 z "},"D":{"ha":3042,"x_min":14,"x_max":3028,"o":"m 14 0 l 1514 0 l 3028 1514 l 3028 2514 l 2528 3014 l 1000 3014 l 14 2028 l 14 0 l 14 0 m 42 1986 l 1514 1986 l 2000 1500 l 2000 528 l 1500 28 l 42 28 l 42 1986 l 42 1986 m 514 500 l 1264 500 l 1528 764 l 1528 1264 l 1278 1514 l 514 1514 l 514 500 l 514 500 m 1264 1236 l 1500 1236 l 1500 778 l 1250 528 l 556 528 l 1264 1236 l 1264 1236 m 542 1486 l 1250 1486 l 1250 1278 l 542 569 l 542 1486 l 542 1486 m 2042 1514 l 3000 2472 l 3000 1528 l 2042 569 l 2042 1514 l 2042 1514 m 1292 1458 l 1472 1278 l 1292 1278 l 1292 1458 l 1292 1458 m 1542 2014 l 2514 2986 l 2986 2514 l 2014 1542 l 1542 2014 l 1542 2014 m 1014 2986 l 2458 2986 l 1500 2028 l 56 2028 l 1014 2986 l 1014 2986 z "},"E":{"ha":3042,"x_min":14,"x_max":3028,"o":"m 14 0 l 2014 0 l 2285 264 l 2285 382 l 2403 382 l 2639 625 l 2639 2660 l 1292 2660 l 1292 2750 l 2750 2750 l 2750 771 l 2667 771 l 2667 750 l 2764 750 l 3028 1014 l 3028 3014 l 1000 3014 l 14 2028 l 14 0 l 14 0 m 42 1986 l 2000 1986 l 2000 28 l 42 28 l 42 1986 l 42 1986 m 2042 2014 l 2250 2222 l 2250 278 l 2042 69 l 2042 2014 l 2042 2014 m 2285 2250 l 2250 2285 l 917 2285 l 917 2375 l 2375 2375 l 2375 417 l 2285 417 l 2285 2250 l 2285 2250 m 2417 2389 l 2611 2583 l 2611 625 l 2417 431 l 2417 2389 l 2417 2389 m 2792 2764 l 3000 2972 l 3000 1028 l 2792 819 l 2792 2764 l 2792 2764 m 1014 2986 l 2958 2986 l 2764 2785 l 1264 2785 l 1139 2653 l 1153 2632 l 2597 2632 l 2383 2410 l 889 2410 l 764 2278 l 764 2257 l 2222 2257 l 2000 2028 l 56 2028 l 1014 2986 l 1014 2986 m 875 2361 l 875 2292 l 806 2292 l 875 2361 l 875 2361 m 1250 2722 l 1250 2667 l 1194 2667 l 1250 2722 l 1250 2722 z "},"F":{"ha":3042,"x_min":14,"x_max":3028,"o":"m 14 0 l 514 0 l 875 368 l 2375 368 l 2632 639 l 2632 757 l 2778 757 l 3028 1014 l 3028 3014 l 1000 3014 l 14 2028 l 14 0 l 14 0 m 42 1986 l 500 1986 l 500 28 l 42 28 l 42 1986 l 42 1986 m 542 2014 l 847 2319 l 861 389 l 542 69 l 542 2014 l 542 2014 m 889 2333 l 2347 2333 l 2347 403 l 889 403 l 889 2333 l 889 2333 m 2389 2361 l 2597 2569 l 2597 653 l 2389 444 l 2389 2361 l 2389 2361 m 2632 2611 l 2611 2632 l 1278 2632 l 1278 2757 l 2750 2757 l 2750 2778 l 1264 2778 l 1111 2625 l 1111 2604 l 2583 2604 l 2361 2368 l 856 2368 l 500 2028 l 56 2028 l 1014 2986 l 3000 2986 l 3000 1028 l 2785 819 l 2785 2750 l 2757 2750 l 2757 792 l 2632 792 l 2632 2611 l 2632 2611 m 1236 2722 l 1236 2639 l 1153 2639 l 1236 2722 l 1236 2722 z "},"G":{"ha":3028,"x_min":14,"x_max":3014,"o":"m 14 2014 l 14 0 l 2014 0 l 2514 500 l 2514 2521 l 2167 2521 l 2167 2597 l 2604 2597 l 2604 597 l 2625 597 l 3014 1000 l 3014 3000 l 1000 3000 l 14 2014 m 42 1986 l 1986 1986 l 1986 28 l 42 28 l 42 1986 m 2028 2000 l 2486 2458 l 2486 500 l 2028 42 l 2028 2000 m 2639 2611 l 2986 2958 l 2986 1000 l 2639 653 l 2639 2611 m 1014 2972 l 2958 2972 l 2625 2639 l 2167 2639 l 2250 2736 l 2250 2764 l 1264 2764 l 764 2264 l 764 2250 l 1514 2250 l 1764 2486 l 2472 2486 l 2014 2028 l 69 2028 l 1014 2972 m 1236 2708 l 1236 2278 l 806 2278 l 1236 2708 m 1278 2736 l 2222 2736 q 2141 2643 2169 2701 q 2125 2521 2113 2585 l 1764 2521 l 1514 2278 l 1278 2278 l 1278 2736 z "},"H":{"ha":3042,"x_min":14,"x_max":3028,"o":"m 14 0 l 785 0 l 785 736 l 1257 736 l 1257 0 l 2028 0 l 3028 1000 l 3028 3014 l 2278 3014 l 2278 2993 l 2986 2993 l 2028 2028 l 1319 2028 l 1611 2333 l 1583 2347 l 1083 2347 l 764 2028 l 83 2028 l 1028 2972 l 1722 2972 l 1403 2639 q 1395 2626 1400 2636 q 1389 2611 1390 2615 q 1387 2604 1388 2610 q 1386 2597 1386 2599 l 1889 2597 l 1903 2625 l 2250 2986 l 2250 3000 l 1861 2625 l 1785 2625 l 1785 3000 l 1014 3000 l 14 2000 l 14 0 m 42 1986 l 757 1986 l 757 1250 l 1285 1250 l 1285 1986 l 2000 1986 l 2000 28 l 1285 28 l 1285 764 l 757 764 l 757 28 l 42 28 l 42 1986 m 2042 2000 l 3000 2958 l 3000 1000 l 2042 42 l 2042 2000 m 1083 1556 l 1250 1556 l 1250 1278 l 806 1278 l 1083 1556 m 792 2014 l 1069 2292 l 1069 1597 l 792 1319 l 792 2014 m 1111 2319 l 1569 2319 l 1257 2000 l 1257 1597 l 1111 1597 l 1111 2319 m 1750 2944 l 1750 2625 l 1431 2625 l 1750 2944 z "},"I":{"ha":2042,"x_min":14,"x_max":2028,"o":"m 14 0 l 1056 0 l 1646 583 l 1646 743 l 1778 743 l 2028 1000 l 2028 3014 l 1028 3014 l 757 2750 l 757 2632 l 625 2632 l 14 2014 l 14 0 l 14 0 m 42 1986 l 1000 1986 l 1000 28 l 42 28 l 42 1986 l 42 1986 m 1042 2000 l 1611 2569 l 1611 597 l 1042 28 l 1042 2000 l 1042 2000 m 1646 2597 l 1625 2632 l 792 2632 l 792 2736 l 1750 2736 l 1750 778 l 1646 778 l 1646 2597 l 1646 2597 m 1792 2750 l 2000 2958 l 2000 1000 l 1792 792 l 1792 2750 l 1792 2750 m 639 2597 l 1597 2597 l 1028 2028 l 69 2028 l 639 2597 l 639 2597 m 1028 2986 l 1986 2986 l 1778 2778 l 819 2778 l 1028 2986 l 1028 2986 z "},"J":{"ha":3042,"x_min":14,"x_max":3028,"o":"m 14 0 l 2042 0 l 3028 1000 l 3028 3014 l 2278 3014 l 1278 2021 l 1028 2021 l 14 1000 l 14 0 l 14 0 m 42 986 l 757 986 l 757 500 l 1285 500 l 1285 1972 l 2014 1972 l 2014 28 l 42 28 l 42 986 l 42 986 m 2056 2000 l 3000 2944 l 3000 1000 l 2056 56 l 2056 2000 l 2056 2000 m 1250 958 l 1250 528 l 819 528 l 1250 958 l 1250 958 m 792 1000 l 1250 1458 l 1250 1000 l 792 542 l 792 1000 l 792 1000 m 1028 1986 l 1250 1986 l 1250 1500 l 778 1028 l 69 1028 l 1028 1986 l 1028 1986 m 2278 2986 l 2986 2986 l 2014 2014 l 1306 2014 l 2278 2986 l 2278 2986 z "},"K":{"ha":3056,"x_min":14,"x_max":3042,"o":"m 14 0 l 528 0 l 1021 479 l 1257 250 l 1257 0 l 2042 0 l 3042 1000 l 3042 1500 l 2556 2000 l 3042 2500 l 3042 3000 l 2264 3000 l 1549 2306 l 1549 3000 l 1014 3000 l 14 2000 l 14 0 l 14 0 m 42 1986 l 507 1986 l 507 1250 l 778 1250 l 1285 1757 l 1285 1986 l 2000 1986 l 2000 1500 l 1514 1000 l 2000 500 l 2000 28 l 1285 28 l 1285 264 l 778 764 l 507 764 l 507 28 l 42 28 l 42 1986 l 42 1986 m 542 736 l 764 736 l 1000 500 l 542 42 l 542 736 l 542 736 m 2042 486 l 3014 1458 l 3014 1014 l 2042 42 l 2042 486 l 2042 486 m 1549 1007 l 2528 1972 l 3000 1500 l 2028 528 l 1549 1007 l 1549 1007 m 1250 1944 l 1250 1750 l 778 1278 l 583 1278 l 1250 1944 l 1250 1944 m 542 1986 l 1514 2958 l 1514 2264 l 542 1292 l 542 1986 l 542 1986 m 2042 1986 l 3014 2958 l 3014 2514 l 2042 1542 l 2042 1986 l 2042 1986 m 1028 2972 l 1472 2972 l 528 2028 l 83 2028 l 1028 2972 l 1028 2972 m 2278 2972 l 2972 2972 l 2028 2028 l 1333 2028 l 2278 2972 l 2278 2972 z "},"L":{"ha":2417,"x_min":14,"x_max":2403,"o":"m 14 0 l 2014 0 l 2389 375 l 2403 2410 l 1771 2410 l 1771 3014 l 1000 3014 l 14 2028 l 14 0 l 14 0 m 42 1986 l 2000 1986 l 2000 28 l 42 28 l 42 1986 l 42 1986 m 2042 2014 l 2361 2333 l 2361 389 l 2042 69 l 2042 2014 l 2042 2014 m 1014 2986 l 1708 2986 l 1111 2375 l 2347 2375 l 2000 2028 l 56 2028 l 1014 2986 l 1014 2986 m 1736 2972 l 1736 2417 l 1181 2417 l 1736 2972 l 1736 2972 z "},"M":{"ha":3042,"x_min":14,"x_max":3028,"o":"m 14 0 l 514 0 l 1507 972 l 1507 0 l 2014 0 l 3028 1014 l 3028 3014 l 2500 3014 l 2014 2542 l 1528 3014 l 1000 3014 l 14 2028 l 14 0 l 14 0 m 42 1986 l 514 1986 l 1014 1500 l 1514 1986 l 2000 1986 l 2000 28 l 1535 28 l 1535 1250 l 1500 1264 l 1014 792 l 528 1264 l 507 1250 l 507 28 l 42 28 l 42 1986 l 42 1986 m 542 1208 l 1014 750 l 1500 1222 l 1500 1028 l 542 69 l 542 1208 l 542 1208 m 2042 2014 l 3000 2972 l 3000 1028 l 2042 69 l 2042 2014 l 2042 2014 m 542 2014 l 1514 2986 l 1986 2514 l 1014 1542 l 542 2014 l 542 2014 m 1014 2986 l 1458 2986 l 500 2028 l 56 2028 l 1014 2986 l 1014 2986 m 2514 2986 l 2958 2986 l 2000 2028 l 1556 2028 l 2514 2986 l 2514 2986 z "},"N":{"ha":3056,"x_min":14,"x_max":3042,"o":"m 14 0 l 542 0 l 1278 722 l 1507 500 l 1507 0 l 2042 0 l 3042 1000 l 3042 3000 l 2514 3000 l 2028 2528 l 1542 3000 l 1014 3000 l 14 2000 l 14 0 l 14 0 m 42 1986 l 514 1986 l 1514 1000 l 1535 1014 l 1535 1986 l 2000 1986 l 2000 28 l 1535 28 l 1535 514 l 542 1500 l 507 1500 l 507 28 l 42 28 l 42 1986 l 42 1986 m 542 1458 l 1250 750 l 542 42 l 542 1458 l 542 1458 m 2042 1986 l 3014 2958 l 3014 1014 l 2042 42 l 2042 1986 l 2042 1986 m 556 2000 l 1528 2972 l 2000 2500 l 1507 2000 l 1507 1056 l 556 2000 l 556 2000 m 1028 2972 l 1472 2972 l 528 2028 l 83 2028 l 1028 2972 l 1028 2972 m 2528 2972 l 2972 2972 l 2028 2028 l 1583 2028 l 2528 2972 l 2528 2972 z "},"O":{"ha":3042,"x_min":14,"x_max":3028,"o":"m 264 0 l 1764 0 l 3028 1264 l 3028 2764 l 2778 3014 l 1250 3014 l 14 1778 l 14 250 l 264 0 l 264 0 m 42 264 l 42 1764 l 264 1986 l 1764 1986 l 2000 1750 l 2000 278 l 1750 28 l 278 28 l 42 264 l 42 264 m 2042 1764 l 3000 2722 l 3000 1278 l 2042 319 l 2042 1764 l 2042 1764 m 764 500 l 1264 500 l 1528 764 l 1528 1264 l 1278 1514 l 750 1514 l 514 1278 l 514 750 l 764 500 l 764 500 m 1500 1222 l 1500 778 l 1250 528 l 806 528 l 1500 1222 l 1500 1222 m 542 764 l 1264 1486 l 1486 1264 l 764 542 l 542 764 l 542 764 m 542 1264 l 764 1486 l 1208 1486 l 542 819 l 542 1264 l 542 1264 m 1792 2014 l 2764 2986 l 2986 2764 l 2014 1792 l 1792 2014 l 1792 2014 m 1264 2986 l 2708 2986 l 1750 2028 l 306 2028 l 1264 2986 l 1264 2986 z "},"P":{"ha":3042,"x_min":14,"x_max":3028,"o":"m 14 0 l 1014 0 l 1514 493 l 2514 493 l 3028 1014 l 3028 3014 l 1000 3014 l 14 2028 l 14 0 l 14 0 m 42 1986 l 2000 1986 l 2000 771 l 1028 771 l 1007 750 l 1007 28 l 42 28 l 42 1986 l 42 1986 m 1042 736 l 1500 736 l 1500 528 l 1042 69 l 1042 736 l 1042 736 m 1542 743 l 2014 743 l 2500 1222 l 2500 528 l 1542 528 l 1542 743 l 1542 743 m 2535 1250 l 2500 1264 l 2042 819 l 2042 2014 l 3000 2972 l 3000 1028 l 2535 569 l 2535 1250 l 2535 1250 m 764 1250 l 1528 1250 l 1528 1514 l 764 1514 l 764 1250 l 764 1250 m 1014 1486 l 1500 1486 l 1500 1278 l 806 1278 l 1014 1486 l 1014 1486 m 792 1486 l 958 1486 l 792 1319 l 792 1486 l 792 1486 m 2375 1889 l 2375 1625 l 2389 1625 l 2778 2014 l 2778 2250 l 2750 2264 l 2375 1889 l 2375 1889 m 2403 1875 l 2514 1986 l 2708 1986 l 2403 1681 l 2403 1875 l 2403 1875 m 1014 2986 l 2958 2986 l 2000 2028 l 56 2028 l 1014 2986 l 1014 2986 m 2750 2222 l 2750 2028 l 2556 2028 l 2750 2222 l 2750 2222 z "},"Q":{"ha":3028,"x_min":14,"x_max":3014,"o":"m 14 0 l 2014 0 l 3014 1014 l 3014 3028 l 1014 3028 l 14 2028 l 14 0 m 42 1986 l 2000 1986 l 2000 28 l 42 28 l 42 1986 m 2028 2014 l 2986 2972 l 2986 1014 l 2042 69 l 2028 2014 m 514 500 l 1035 500 l 1035 986 l 1257 986 l 1257 500 l 1528 500 l 1528 1514 l 514 1514 l 514 500 m 1000 972 l 1000 528 l 556 528 l 1000 972 m 1500 708 l 1500 528 l 1319 528 l 1500 708 m 1292 1014 l 1500 1222 l 1500 764 q 1489 749 1500 763 q 1463 719 1478 736 q 1431 683 1447 701 q 1403 653 1414 664 l 1292 542 l 1292 1014 m 542 1486 l 1500 1486 l 1500 1396 l 1375 1396 l 542 556 l 542 1486 m 1389 1361 l 1500 1361 l 1500 1278 l 1250 1028 l 1056 1028 l 1389 1361 m 1014 3000 l 2972 3000 l 2000 2028 l 42 2028 l 1014 3000 z "},"R":{"ha":3028,"x_min":14,"x_max":3014,"o":"m 14 2014 l 14 0 l 764 0 l 1014 236 l 1243 236 l 1243 0 l 2014 0 l 2271 257 l 2271 493 l 2514 493 l 3014 1000 l 3014 3014 l 1014 3014 l 14 2014 m 42 1986 l 736 1986 l 736 28 l 42 28 l 42 1986 m 1278 1986 l 1986 1986 l 1986 28 l 1278 28 l 1278 1986 m 778 2000 l 986 2208 l 986 250 l 778 42 l 778 2000 m 2028 2000 l 2236 2208 l 2236 250 l 2028 42 l 2028 2000 m 1028 2236 l 1472 2236 l 1243 2000 l 1243 278 l 1028 278 l 1028 2236 m 2271 2264 l 2056 2486 l 2486 2486 l 2486 528 l 2271 528 l 2271 2264 m 2528 2500 l 2986 2958 l 2986 1000 l 2528 542 l 2528 2500 m 1014 2986 l 2972 2986 l 2514 2521 l 2014 2521 l 2014 2486 l 2236 2250 l 2014 2028 l 1306 2028 l 1500 2236 l 1500 2264 l 1014 2264 l 764 2028 l 56 2028 l 1014 2986 m 1388 2674 q 1388 2669 1388 2672 q 1389 2667 1389 2667 q 1396 2658 1392 2664 q 1403 2653 1400 2653 l 1917 2653 l 2000 2736 l 2000 2764 l 1486 2764 q 1472 2758 1483 2764 q 1458 2750 1461 2753 q 1444 2736 1454 2746 q 1424 2715 1435 2726 q 1403 2694 1413 2704 q 1389 2681 1393 2685 q 1388 2677 1389 2679 q 1388 2674 1388 2675 m 1472 2722 l 1472 2681 l 1431 2681 l 1472 2722 m 1514 2736 l 1972 2736 l 1917 2681 l 1514 2681 l 1514 2736 z "},"S":{"ha":3042,"x_min":14,"x_max":3028,"o":"m 14 0 l 2056 0 l 2639 583 q 2647 597 2642 586 q 2653 611 2651 607 q 2656 637 2654 618 q 2660 677 2658 656 q 2665 717 2663 699 q 2667 743 2667 736 l 2778 743 l 3028 1000 l 3028 3014 l 1028 3014 l 410 2403 l 410 2271 l 278 2271 l 14 2000 l 14 0 m 42 1986 l 2000 1986 l 2000 28 l 42 28 l 42 1986 m 2042 2000 l 2625 2583 l 2625 611 l 2042 28 l 2042 2000 m 2660 2611 l 2639 2660 l 1292 2660 l 1292 2736 l 2750 2736 l 2750 778 l 2660 778 l 2660 2611 m 2792 2750 l 3000 2958 l 3000 1000 l 2792 792 l 2792 2750 m 278 2243 l 1778 2243 l 1903 2375 l 1903 2410 l 486 2410 l 1056 2986 l 2986 2986 l 2778 2771 l 1278 2771 l 1153 2632 l 2625 2632 l 2028 2028 l 69 2028 l 278 2243 m 444 2375 l 1875 2375 l 1778 2278 l 444 2278 l 444 2375 m 1250 2708 l 1250 2667 l 1208 2667 l 1250 2708 z "},"T":{"ha":2403,"x_min":14,"x_max":2389,"o":"m 118 0 l 653 0 l 1292 632 l 2028 632 l 2389 1000 l 2389 3000 l 375 3000 l 14 2653 l 14 632 l 118 632 l 118 0 m 153 1986 l 611 1986 l 611 28 l 153 28 l 153 1986 m 653 2000 l 1250 2597 l 1250 639 l 653 42 l 653 2000 m 42 2639 l 750 2639 l 118 2000 l 118 667 l 42 667 l 42 2639 m 1292 2597 l 2000 2597 l 2000 667 l 1292 667 l 1292 2597 m 2042 2625 l 2361 2944 l 2361 1000 l 2042 694 l 2042 2625 m 775 2674 l 83 2674 l 375 2972 l 2333 2972 l 2000 2632 l 1250 2632 l 639 2028 l 181 2028 l 764 2625 q 775 2639 772 2633 q 778 2649 778 2644 q 776 2660 778 2654 q 775 2674 775 2665 z "},"U":{"ha":3042,"x_min":14,"x_max":3028,"o":"m 14 0 l 2028 0 l 3028 1000 l 3028 3014 l 2528 3014 l 1778 2278 l 1535 2278 l 1535 3014 l 1028 3014 l 14 2000 l 14 0 l 14 0 m 42 1986 l 2000 1986 l 2000 28 l 42 28 l 42 1986 l 42 1986 m 2042 2000 l 3000 2958 l 3000 1000 l 2042 42 l 2042 2000 l 2042 2000 m 1028 2986 l 1486 2986 l 764 2250 l 1778 2250 l 2528 2986 l 2986 2986 l 2028 2028 l 69 2028 l 1028 2986 l 1028 2986 m 1500 2958 l 1500 2278 l 819 2278 l 1500 2958 l 1500 2958 z "},"V":{"ha":2792,"x_min":14,"x_max":2778,"o":"m 14 250 l 264 0 l 1306 0 l 2014 236 l 2778 1000 l 2778 3014 l 2028 3014 l 1535 2542 l 1535 3014 l 778 3014 l 14 2250 l 14 250 l 14 250 m 292 1986 l 1250 1986 l 1250 28 l 292 28 l 292 1986 l 292 1986 m 1292 1990 l 2000 2226 l 2000 264 l 1292 28 l 1292 1990 l 1292 1990 m 42 264 l 42 2208 l 250 2000 l 250 56 l 42 264 l 42 264 m 2042 2250 l 2750 2958 l 2750 1000 l 2042 292 l 2042 2250 l 2042 2250 m 49 2257 l 778 2986 l 1486 2986 l 764 2250 l 1278 2250 l 2028 2986 l 2736 2986 l 2021 2271 l 1292 2028 l 278 2028 l 49 2257 l 49 2257 m 1500 2958 l 1500 2500 l 1278 2278 l 819 2278 l 1500 2958 l 1500 2958 z "},"W":{"ha":3042,"x_min":14,"x_max":3028,"o":"m 14 0 l 2028 0 l 3028 1000 l 3028 3014 l 2528 3014 l 2035 2542 l 2035 2750 l 2014 2771 l 1535 2771 l 1535 3014 l 1028 3014 l 14 2000 l 14 0 l 14 0 m 42 1986 l 2000 1986 l 2000 28 l 42 28 l 42 1986 l 42 1986 m 2042 2000 l 3000 2958 l 3000 1000 l 2042 42 l 2042 2000 l 2042 2000 m 1028 2986 l 1486 2986 l 764 2250 l 1028 2250 l 1528 2736 l 1986 2736 l 1514 2250 l 1778 2250 l 2528 2986 l 2986 2986 l 2028 2028 l 69 2028 l 1028 2986 l 1028 2986 m 1500 2958 l 1500 2750 l 1028 2278 l 819 2278 l 1500 2958 l 1500 2958 m 2000 2708 l 2000 2500 l 1778 2278 l 1569 2278 l 2000 2708 l 2000 2708 z "},"X":{"ha":3042,"x_min":14,"x_max":3028,"o":"m 14 0 l 514 0 l 1014 486 l 1514 0 l 2014 0 l 3028 1014 l 3028 1264 l 2292 2014 l 3028 2764 l 3028 3014 l 2500 3014 l 2014 2542 l 1528 3014 l 1000 3014 l 14 2028 l 14 1750 l 736 1014 l 14 278 l 14 0 l 14 0 m 42 264 l 778 1014 l 42 1764 l 42 1986 l 514 1986 l 1014 1500 l 1514 1986 l 2000 1986 l 2000 1778 l 1250 1014 l 2000 250 l 2000 28 l 1528 28 l 1014 528 l 500 28 l 42 28 l 42 264 l 42 264 m 2042 264 l 3000 1222 l 3000 1028 l 2042 69 l 2042 264 l 2042 264 m 1292 1014 l 2264 1986 l 2986 1264 l 2014 292 l 1292 1014 l 1292 1014 m 542 2014 l 1514 2986 l 1986 2514 l 1014 1542 l 542 2014 l 542 2014 m 2042 2014 l 3000 2972 l 3000 2778 l 2042 1819 l 2042 2014 l 2042 2014 m 1014 2986 l 1458 2986 l 500 2028 l 56 2028 l 1014 2986 l 1014 2986 m 2514 2986 l 2958 2986 l 2000 2028 l 1556 2028 l 2514 2986 l 2514 2986 z "},"Y":{"ha":2528,"x_min":14,"x_max":2514,"o":"m 257 0 l 764 0 l 1264 493 l 2014 493 l 2514 1014 l 2514 3028 l 2014 3028 l 1764 2792 l 1035 2792 l 1035 3014 l 528 3014 l 528 2993 l 958 2993 l 751 2764 l 1764 2764 l 2014 3000 l 2472 3000 l 2014 2542 l 1264 2514 l 1250 2514 l 750 2028 l 306 2028 l 776 2514 l 56 2542 l 500 3000 l 500 3014 l 14 2528 l 14 493 l 257 493 l 257 0 m 292 1986 l 750 1986 l 750 28 l 292 28 l 292 1986 m 792 2014 l 1250 2472 l 1250 528 l 792 69 l 792 2014 m 42 2500 l 153 2500 l 264 2500 q 315 2499 281 2500 q 394 2496 350 2497 q 486 2493 438 2494 q 578 2490 535 2492 q 657 2488 622 2489 q 708 2486 692 2488 l 257 2028 l 257 528 l 42 528 l 42 2500 m 1292 2486 q 1451 2492 1364 2489 q 1631 2497 1539 2494 q 1814 2500 1722 2499 q 1986 2501 1906 2501 l 1986 528 l 1292 528 l 1292 2486 m 2028 2514 l 2486 2972 l 2486 1014 l 2028 556 l 2028 2514 m 1000 2986 l 1000 2792 l 806 2792 l 1000 2986 z "},"Z":{"ha":3042,"x_min":14,"x_max":3028,"o":"m 14 0 l 2056 0 l 2396 333 l 2396 493 l 2528 493 l 3028 1000 l 3028 3014 l 1028 3014 l 840 2833 l 840 2715 l 708 2715 l 14 2000 l 14 0 m 42 1986 l 2000 1986 l 2000 28 l 42 28 l 42 1986 m 2042 2000 l 2361 2319 l 2361 347 l 2042 28 l 2042 2000 m 2396 2382 l 1042 2382 l 1042 2486 l 2500 2486 l 2500 528 l 2396 528 l 2396 2382 m 2542 2500 l 3000 2958 l 3000 1000 l 2542 542 l 2542 2500 m 722 2688 l 2208 2688 l 2347 2833 l 2347 2854 l 903 2854 l 1028 2986 l 2986 2986 l 2528 2521 l 1028 2521 q 1015 2513 1025 2521 q 1000 2500 1004 2504 q 972 2472 992 2492 q 931 2428 953 2451 q 889 2383 908 2404 q 861 2354 869 2363 l 2347 2354 l 2028 2028 l 69 2028 l 722 2688 m 1000 2472 l 1000 2389 l 917 2389 l 1000 2472 m 875 2819 l 2306 2819 l 2208 2722 l 875 2722 l 875 2819 z "},"a":{"ha":3042,"x_min":14,"x_max":3028,"o":"m 14 0 l 778 0 l 1257 472 l 1257 0 l 2028 0 l 2396 361 l 2396 632 l 2667 632 l 3028 1000 l 3028 3014 l 1028 3014 l 14 2000 l 14 0 l 14 0 m 42 1986 l 2000 1986 l 2000 28 l 1271 28 l 1271 750 l 771 750 l 771 28 l 42 28 l 42 1986 l 42 1986 m 2042 2000 l 3000 2958 l 3000 1000 l 2646 653 l 2646 1375 l 2382 1125 l 2382 375 l 2042 42 l 2042 2000 l 2042 2000 m 792 736 l 1250 736 l 1250 514 l 792 56 l 792 736 l 792 736 m 2403 1125 l 2625 1347 l 2625 653 l 2403 653 l 2403 1125 l 2403 1125 m 764 1000 l 1264 1000 l 1264 1250 l 764 1250 l 764 1000 l 764 1000 m 1014 1236 l 1250 1236 l 1250 1014 l 792 1014 l 1014 1236 l 1014 1236 m 778 1236 l 986 1236 l 778 1028 l 778 1236 l 778 1236 m 2375 1611 l 2375 1347 l 2639 1611 l 2639 1875 l 2375 1611 l 2375 1611 m 2389 1611 l 2611 1611 l 2389 1389 l 2389 1611 l 2389 1611 m 2625 1847 l 2625 1639 l 2417 1639 l 2625 1847 l 2625 1847 m 1028 2986 l 2986 2986 l 2028 2028 l 69 2028 l 1028 2986 l 1028 2986 z "},"b":{"ha":3042,"x_min":14,"x_max":3028,"o":"m 14 0 l 1514 0 l 3028 1514 l 3028 2021 l 2806 2021 l 3028 2264 l 3028 3014 l 1000 3014 l 14 2028 l 14 0 m 42 1986 l 2000 1986 l 2000 1278 l 1764 1028 q 1763 1026 1764 1028 q 1763 1021 1763 1024 q 1763 1017 1763 1019 q 1764 1014 1764 1014 q 1772 1001 1767 1010 q 1778 993 1776 993 l 2000 993 l 2000 528 l 1500 28 l 42 28 l 42 1986 m 764 500 l 1264 500 l 1514 750 l 1514 764 l 764 764 l 764 500 m 1014 736 l 1458 736 l 1250 528 l 806 528 l 1014 736 m 792 736 l 958 736 l 792 569 l 792 736 m 2042 1014 l 3000 1972 l 3000 1528 l 2042 569 l 2042 1014 m 2764 1986 l 2958 1986 l 2000 1028 l 1806 1028 l 2764 1986 m 764 1250 l 1264 1250 l 1514 1500 l 1514 1514 l 764 1514 l 764 1250 m 1014 1486 l 1458 1486 l 1250 1278 l 806 1278 l 1014 1486 m 792 1486 l 958 1486 l 792 1319 l 792 1486 m 2042 2014 l 3000 2972 l 3000 2278 l 2042 1319 l 2042 2014 m 1014 2986 l 2958 2986 l 2000 2028 l 56 2028 l 1014 2986 z "},"c":{"ha":3042,"x_min":14,"x_max":3028,"o":"m 14 0 l 2028 0 l 3028 1000 l 3028 3014 l 1028 3014 l 14 2000 l 14 0 l 14 0 m 42 1986 l 2000 1986 l 2000 1535 l 528 1535 l 528 465 l 2000 465 l 2000 28 l 42 28 l 42 1986 l 42 1986 m 2042 486 l 2778 1236 l 2778 2292 l 2042 1569 l 2042 2000 l 3000 2958 l 3000 1000 l 2042 42 l 2042 486 l 2042 486 m 1292 1222 l 2736 1222 l 2000 486 l 556 486 l 1292 1222 l 1292 1222 m 542 1514 l 1264 1514 l 1264 1222 l 542 500 l 542 1514 l 542 1514 m 1292 1521 l 2028 1521 l 2764 2250 l 2764 1250 l 1292 1250 l 1292 1521 l 1292 1521 m 1028 2986 l 2986 2986 l 2028 2028 l 69 2028 l 1028 2986 l 1028 2986 z "},"d":{"ha":3042,"x_min":14,"x_max":3028,"o":"m 14 0 l 1528 0 l 3028 1500 l 3028 2514 l 2528 3014 l 1028 3014 l 14 2000 l 14 1514 l 1264 1521 l 42 1521 l 42 1986 l 1528 1986 l 2514 2986 l 2993 2507 l 2000 1514 l 2000 500 l 1528 28 l 42 28 l 42 493 l 1264 493 l 1528 750 l 1528 1264 l 792 1264 l 771 1486 l 771 1250 l 14 500 l 14 0 m 778 1236 l 1514 1236 l 1514 764 l 1264 514 l 56 514 l 778 1236 m 2042 1528 l 3000 2486 l 3000 1500 l 2042 542 l 2042 1528 m 1500 1292 q 1489 1278 1489 1292 q 1500 1264 1489 1264 q 1511 1278 1511 1264 q 1500 1292 1511 1292 m 1486 1306 q 1475 1292 1475 1306 q 1486 1278 1475 1278 q 1497 1292 1497 1278 q 1486 1306 1497 1306 m 1472 1319 q 1461 1306 1461 1319 q 1472 1292 1461 1292 q 1483 1306 1483 1292 q 1472 1319 1483 1319 m 1458 1333 q 1447 1319 1447 1333 q 1458 1306 1447 1306 q 1469 1319 1469 1306 q 1458 1333 1469 1333 m 1444 1347 q 1433 1333 1433 1347 q 1444 1319 1433 1319 q 1456 1333 1456 1319 q 1444 1347 1456 1347 m 1431 1361 q 1419 1347 1419 1361 q 1431 1333 1419 1333 q 1442 1347 1442 1333 q 1431 1361 1442 1361 m 1417 1375 q 1406 1361 1406 1375 q 1417 1347 1406 1347 q 1428 1361 1428 1347 q 1417 1375 1428 1375 m 1403 1389 q 1392 1375 1392 1389 q 1403 1361 1392 1361 q 1414 1375 1414 1361 q 1403 1389 1414 1389 m 1389 1403 q 1378 1389 1378 1403 q 1389 1375 1378 1375 q 1400 1389 1400 1375 q 1389 1403 1400 1403 m 1375 1417 q 1364 1403 1364 1417 q 1375 1389 1364 1389 q 1386 1403 1386 1389 q 1375 1417 1386 1417 m 1361 1431 q 1350 1417 1350 1431 q 1361 1403 1350 1403 q 1372 1417 1372 1403 q 1361 1431 1372 1431 m 1347 1444 q 1336 1431 1336 1444 q 1347 1417 1336 1417 q 1358 1431 1358 1417 q 1347 1444 1358 1444 m 1333 1458 q 1322 1444 1322 1458 q 1333 1431 1322 1431 q 1344 1444 1344 1431 q 1333 1458 1344 1458 m 1319 1472 q 1308 1458 1308 1472 q 1319 1444 1308 1444 q 1331 1458 1331 1444 q 1319 1472 1331 1472 m 1306 1486 q 1294 1472 1294 1486 q 1306 1458 1294 1458 q 1317 1472 1317 1458 q 1306 1486 1317 1486 m 1292 1500 q 1281 1486 1281 1500 q 1292 1472 1281 1472 q 1303 1486 1303 1472 q 1292 1500 1303 1500 m 1278 1514 q 1267 1500 1267 1514 q 1278 1486 1267 1486 q 1289 1500 1289 1486 q 1278 1514 1289 1514 m 1986 1542 q 1975 1528 1975 1542 q 1986 1514 1975 1514 q 1997 1528 1997 1514 q 1986 1542 1997 1542 m 1972 1556 q 1961 1542 1961 1556 q 1972 1528 1961 1528 q 1983 1542 1983 1528 q 1972 1556 1983 1556 m 1958 1569 q 1947 1556 1947 1569 q 1958 1542 1947 1542 q 1969 1556 1969 1542 q 1958 1569 1969 1569 m 1944 1583 q 1933 1569 1933 1583 q 1944 1556 1933 1556 q 1956 1569 1956 1556 q 1944 1583 1956 1583 m 1931 1597 q 1919 1583 1919 1597 q 1931 1569 1919 1569 q 1942 1583 1942 1569 q 1931 1597 1942 1597 m 1917 1611 q 1906 1597 1906 1611 q 1917 1583 1906 1583 q 1928 1597 1928 1583 q 1917 1611 1928 1611 m 1903 1625 q 1892 1611 1892 1625 q 1903 1597 1892 1597 q 1914 1611 1914 1597 q 1903 1625 1914 1625 m 1889 1639 q 1878 1625 1878 1639 q 1889 1611 1878 1611 q 1900 1625 1900 1611 q 1889 1639 1900 1639 m 1875 1653 q 1864 1639 1864 1653 q 1875 1625 1864 1625 q 1886 1639 1886 1625 q 1875 1653 1886 1653 m 1861 1667 q 1850 1653 1850 1667 q 1861 1639 1850 1639 q 1872 1653 1872 1639 q 1861 1667 1872 1667 m 1847 1681 q 1836 1667 1836 1681 q 1847 1653 1836 1653 q 1858 1667 1858 1653 q 1847 1681 1858 1681 m 1833 1694 q 1822 1681 1822 1694 q 1833 1667 1822 1667 q 1844 1681 1844 1667 q 1833 1694 1844 1694 m 1819 1708 q 1808 1694 1808 1708 q 1819 1681 1808 1681 q 1831 1694 1831 1681 q 1819 1708 1831 1708 m 1806 1722 q 1794 1708 1794 1722 q 1806 1694 1794 1694 q 1817 1708 1817 1694 q 1806 1722 1817 1722 m 1792 1736 q 1781 1722 1781 1736 q 1792 1708 1781 1708 q 1803 1722 1803 1708 q 1792 1736 1803 1736 m 1778 1750 q 1767 1736 1767 1750 q 1778 1722 1767 1722 q 1789 1736 1789 1722 q 1778 1750 1789 1750 m 1764 1764 q 1753 1750 1753 1764 q 1764 1736 1753 1736 q 1775 1750 1775 1736 q 1764 1764 1775 1764 m 1750 1778 q 1739 1764 1739 1778 q 1750 1750 1739 1750 q 1761 1764 1761 1750 q 1750 1778 1761 1778 m 1736 1792 q 1725 1778 1725 1792 q 1736 1764 1725 1764 q 1747 1778 1747 1764 q 1736 1792 1747 1792 m 1722 1806 q 1711 1792 1711 1806 q 1722 1778 1711 1778 q 1733 1792 1733 1778 q 1722 1806 1733 1806 m 1708 1819 q 1697 1806 1697 1819 q 1708 1792 1697 1792 q 1719 1806 1719 1792 q 1708 1819 1719 1819 m 1694 1833 q 1683 1819 1683 1833 q 1694 1806 1683 1806 q 1706 1819 1706 1806 q 1694 1833 1706 1833 m 1681 1847 q 1669 1833 1669 1847 q 1681 1819 1669 1819 q 1692 1833 1692 1819 q 1681 1847 1692 1847 m 1667 1861 q 1656 1847 1656 1861 q 1667 1833 1656 1833 q 1678 1847 1678 1833 q 1667 1861 1678 1861 m 1653 1875 q 1642 1861 1642 1875 q 1653 1847 1642 1847 q 1664 1861 1664 1847 q 1653 1875 1664 1875 m 1639 1889 q 1628 1875 1628 1889 q 1639 1861 1628 1861 q 1650 1875 1650 1861 q 1639 1889 1650 1889 m 1625 1903 q 1614 1889 1614 1903 q 1625 1875 1614 1875 q 1636 1889 1636 1875 q 1625 1903 1636 1903 m 1611 1917 q 1600 1903 1600 1917 q 1611 1889 1600 1889 q 1622 1903 1622 1889 q 1611 1917 1622 1917 m 1597 1931 q 1586 1917 1586 1931 q 1597 1903 1586 1903 q 1608 1917 1608 1903 q 1597 1931 1608 1931 m 1583 1944 q 1572 1931 1572 1944 q 1583 1917 1572 1917 q 1594 1931 1594 1917 q 1583 1944 1594 1944 m 1569 1958 q 1558 1944 1558 1958 q 1569 1931 1558 1931 q 1581 1944 1581 1931 q 1569 1958 1581 1958 m 1556 1972 q 1544 1958 1544 1972 q 1556 1944 1544 1944 q 1567 1958 1567 1944 q 1556 1972 1567 1972 m 1542 1986 q 1531 1972 1531 1986 q 1542 1958 1531 1958 q 1553 1972 1553 1958 q 1542 1986 1553 1986 m 1028 2986 l 2486 2986 l 1528 2028 l 69 2028 l 1028 2986 z "},"e":{"ha":3042,"x_min":14,"x_max":3028,"o":"m 14 0 l 2028 0 l 3028 1000 l 3028 1507 l 2778 1507 l 3028 1764 l 3028 2257 l 2792 2257 l 3028 2514 l 3028 3014 l 1028 3014 l 14 2000 l 14 1493 l 236 1493 l 14 1250 l 14 743 l 236 743 l 14 500 l 14 0 l 14 0 m 42 486 l 2000 486 l 2000 28 l 42 28 l 42 486 l 42 486 m 2042 514 l 3000 1472 l 3000 1000 l 2042 42 l 2042 514 l 2042 514 m 278 743 l 2014 743 l 2750 1486 l 2972 1486 l 2014 514 l 56 514 l 278 743 l 278 743 m 42 1236 l 2000 1236 l 2000 764 l 42 764 l 42 1236 l 42 1236 m 2042 1264 l 3000 2222 l 3000 1764 l 2042 806 l 2042 1264 l 2042 1264 m 264 1493 l 2014 1493 l 2764 2236 l 2986 2236 l 2014 1264 l 42 1264 l 264 1493 l 264 1493 m 42 1986 l 2000 1986 l 2000 1514 l 42 1514 l 42 1986 l 42 1986 m 2042 2000 l 3000 2958 l 3000 2514 l 2042 1556 l 2042 2000 l 2042 2000 m 1028 2986 l 2986 2986 l 2028 2028 l 69 2028 l 1028 2986 l 1028 2986 z "},"f":{"ha":3042,"x_min":14,"x_max":3028,"o":"m 14 0 l 528 0 l 1250 729 l 2764 729 l 3028 1000 l 3028 3014 l 1028 3014 l 14 2000 l 14 0 l 14 0 m 42 1986 l 2000 1986 l 2000 1521 l 514 1521 l 514 1257 l 2014 1257 l 2014 785 l 542 785 l 521 764 l 521 28 l 42 28 l 42 1986 l 42 1986 m 542 764 l 1264 764 l 542 42 l 542 764 l 542 764 m 1292 771 l 2028 771 l 2736 1472 l 2736 750 l 1278 750 l 1292 771 l 1292 771 m 2757 1486 l 2736 1486 l 2042 806 l 2042 1264 l 2750 1972 l 2750 2250 l 2042 1556 l 2042 2000 l 3000 2958 l 3000 1000 l 2757 764 l 2757 1486 l 2757 1486 m 764 1507 l 2028 1507 l 2500 1972 l 2708 1972 l 2014 1278 l 542 1278 l 764 1507 l 764 1507 m 528 1500 l 736 1500 l 528 1292 l 528 1500 l 528 1500 m 2736 2208 l 2736 2000 l 2528 2000 l 2736 2208 l 2736 2208 m 1028 2986 l 2986 2986 l 2028 2028 l 69 2028 l 1028 2986 l 1028 2986 z "},"g":{"ha":3042,"x_min":14,"x_max":3028,"o":"m 14 2000 l 14 0 l 1528 0 l 3028 1500 l 3028 1993 l 2806 1993 l 3028 2222 l 3028 3014 l 1028 3014 l 14 2000 l 14 2000 m 42 1986 l 2000 1986 l 2000 1250 l 1535 1250 l 1535 1514 l 528 1514 l 528 472 l 1278 486 l 1514 729 l 1292 729 l 1292 986 l 2000 986 l 2000 514 l 1514 28 l 42 28 l 42 1986 l 42 1986 m 1514 1458 l 1514 1250 l 1278 1000 l 1278 715 l 1486 715 l 1278 500 l 556 500 l 1514 1458 l 1514 1458 m 542 1500 l 1514 1500 l 1514 1486 l 542 514 l 542 1500 l 542 1500 m 2042 1000 l 3000 1958 l 3000 1500 l 2042 542 l 2042 1000 l 2042 1000 m 1528 1229 l 2021 1229 l 2778 1972 l 2986 1972 l 2028 1014 l 1319 1014 l 1528 1229 l 1528 1229 m 2042 2000 l 3000 2958 l 3000 2236 l 2042 1278 l 2042 2000 l 2042 2000 m 1028 2986 l 2986 2986 l 2028 2028 l 69 2028 l 1028 2986 l 1028 2986 z "},"h":{"ha":3042,"x_min":14,"x_max":3028,"o":"m 14 0 l 764 0 l 1257 472 l 1257 0 l 2028 0 l 2382 347 l 2382 618 l 2653 618 l 3028 1000 l 3028 3014 l 2278 3014 l 1882 2611 l 1882 2361 l 1785 2361 l 1785 3014 l 1028 3014 l 632 2625 l 632 2354 l 361 2354 l 14 2000 l 14 0 l 14 0 m 42 1986 l 743 1986 l 743 1236 l 1271 1236 l 1271 1986 l 2000 1986 l 2000 28 l 1271 28 l 1271 778 l 1250 500 l 778 42 l 778 785 l 1250 785 l 757 792 l 757 28 l 42 28 l 42 1986 l 42 1986 m 2042 2000 l 2354 2306 l 2354 1583 l 2632 1847 l 2632 2597 l 3000 2958 l 3000 1000 l 2646 653 l 2646 1347 l 2625 1347 l 2368 1097 l 2368 361 l 2042 42 l 2042 2000 l 2042 2000 m 2389 1097 l 2625 1333 l 2625 639 l 2389 639 l 2389 1097 l 2389 1097 m 1097 1556 l 1250 1556 l 1250 1250 l 792 1250 l 1097 1556 l 1097 1556 m 764 2000 l 1083 2319 l 1083 1583 l 764 1264 l 764 2000 l 764 2000 m 1250 1708 l 1250 1583 l 1125 1583 l 1250 1708 l 1250 1708 m 1104 2354 l 653 2354 l 653 2597 l 1375 2597 l 1375 2125 l 1257 2000 l 1257 1736 l 1104 1597 l 1104 2354 l 1104 2354 m 2368 2354 l 1903 2354 l 1903 2583 l 2611 2583 l 2611 1847 l 2368 1611 l 2368 2354 l 2368 2354 m 375 2333 l 1056 2333 l 750 2028 l 69 2028 l 375 2333 l 375 2333 m 1611 2333 l 2333 2333 l 2028 2028 l 1306 2028 l 1611 2333 l 1611 2333 m 1403 2611 l 1764 2986 l 1764 2354 l 1611 2354 l 1403 2153 l 1403 2611 l 1403 2611 m 2278 2986 l 2986 2986 l 2611 2611 l 1903 2611 l 2278 2986 l 2278 2986 m 1028 2986 l 1736 2986 l 1375 2625 l 667 2625 l 1028 2986 l 1028 2986 z "},"i":{"ha":3042,"x_min":14,"x_max":3028,"o":"m 14 0 l 2014 0 l 3028 1014 l 3028 2271 l 2806 2271 l 3028 2514 l 3028 3014 l 1000 3014 l 14 2028 l 14 1493 l 208 1493 l 14 1278 l 14 0 l 14 0 m 42 1236 l 2000 1236 l 2000 28 l 42 28 l 42 1236 l 42 1236 m 2042 1264 l 3000 2222 l 3000 1028 l 2042 69 l 2042 1264 l 2042 1264 m 264 1493 l 2014 1493 l 2764 2236 l 2958 2236 l 2000 1278 l 56 1278 l 264 1493 l 264 1493 m 42 1986 l 2000 1986 l 2000 1528 l 42 1528 l 42 1986 l 42 1986 m 2042 2014 l 3000 2972 l 3000 2528 l 2042 1569 l 2042 2014 l 2042 2014 m 1014 2986 l 2958 2986 l 2000 2028 l 56 2028 l 1014 2986 l 1014 2986 z "},"j":{"ha":3042,"x_min":14,"x_max":3028,"o":"m 514 0 l 1514 0 l 3028 1514 l 3028 3014 l 1000 3014 l 507 2528 l 507 1528 l 14 1028 l 14 500 l 514 0 l 514 0 m 42 514 l 42 986 l 757 986 l 757 750 l 1014 500 l 1285 764 l 1285 2000 l 2000 2000 l 2000 528 l 1500 28 l 528 28 l 42 514 l 42 514 m 792 764 l 1250 1222 l 1250 778 l 1014 542 l 792 764 l 792 764 m 2042 2014 l 3000 2972 l 3000 1528 l 2042 569 l 2042 2014 l 2042 2014 m 792 1014 l 1250 1472 l 1250 1278 l 792 819 l 792 1014 l 792 1014 m 514 1486 l 1208 1486 l 750 1028 l 56 1028 l 514 1486 l 514 1486 m 542 2486 l 1708 2486 l 1257 2028 l 1257 1528 l 542 1528 l 542 2486 l 542 2486 m 1764 2500 l 1764 2521 l 556 2521 l 1014 2986 l 2958 2986 l 2014 2042 l 1319 2042 l 1764 2500 l 1764 2500 z "},"k":{"ha":3042,"x_min":14,"x_max":3028,"o":"m 14 0 l 778 0 l 1014 236 l 1257 236 l 1257 0 l 2014 0 l 3028 1014 l 3028 3014 l 1000 3014 l 14 2028 l 14 0 l 14 0 m 42 1986 l 757 1986 l 757 1750 l 1285 1750 l 1285 1986 l 2000 1986 l 2000 1132 l 1264 1132 l 1264 882 l 2000 882 l 2000 28 l 1285 28 l 1285 264 l 757 264 l 757 28 l 42 28 l 42 1986 l 42 1986 m 792 236 l 958 236 l 792 69 l 792 236 l 792 236 m 2042 889 l 2778 1639 l 2778 1861 l 2736 1861 l 2042 1181 l 2042 2014 l 3000 2972 l 3000 1028 l 2042 69 l 2042 889 l 2042 889 m 1500 1104 l 2014 1104 l 2750 1833 l 2750 1653 l 2014 917 l 1319 917 l 1500 1104 l 1500 1104 m 1292 1097 l 1444 1097 l 1292 944 l 1292 1097 l 1292 1097 m 1389 2361 l 1583 2361 l 1257 2028 l 1257 1778 l 806 1778 l 1389 2361 l 1389 2361 m 792 2014 l 1375 2597 l 1375 2403 l 792 1819 l 792 2014 l 792 2014 m 1014 2986 l 2958 2986 l 2000 2028 l 1306 2028 l 1903 2639 l 1375 2639 l 750 2028 l 56 2028 l 1014 2986 l 1014 2986 m 1417 2611 l 1833 2611 l 1625 2403 l 1417 2403 l 1417 2611 l 1417 2611 z "},"l":{"ha":3042,"x_min":14,"x_max":3028,"o":"m 14 0 l 2014 0 l 3028 1014 l 3028 3014 l 1000 3014 l 14 2028 l 14 0 m 42 1986 l 757 1986 l 757 764 l 778 743 l 2000 743 l 2000 28 l 42 28 l 42 1986 m 2042 764 l 2625 1347 l 2660 1361 l 2660 2653 l 3000 2986 l 3000 1028 l 2042 69 l 2042 764 m 1389 1361 l 2569 1347 l 2000 778 l 806 778 l 1389 1361 m 792 2014 l 1375 2597 l 1375 1403 l 792 819 l 792 2014 m 1417 2625 l 2625 2625 l 2625 1389 l 1417 1389 l 1417 2625 m 1014 2986 l 2944 2986 l 2625 2667 l 1403 2653 l 1389 2653 l 750 2028 l 56 2028 l 1014 2986 z "},"m":{"ha":3042,"x_min":14,"x_max":3028,"o":"m 14 0 l 514 0 l 757 222 l 757 0 l 1264 0 l 1507 222 l 1507 0 l 2014 0 l 2271 250 l 2271 354 l 2375 354 l 2646 639 l 2646 743 l 2764 743 l 3028 1014 l 3028 3014 l 1000 3014 l 14 2028 l 14 0 m 42 1986 l 2000 1986 l 2000 28 l 1535 28 l 1535 1014 l 1257 1014 l 1257 28 l 785 28 l 785 1014 l 507 1014 l 507 28 l 42 28 l 42 1986 m 542 986 l 750 986 l 750 278 l 542 69 l 542 986 m 1292 986 l 1500 986 l 1500 278 l 1292 69 l 1292 986 m 2042 2014 l 3000 2972 l 3000 1028 l 2785 819 l 2785 1764 l 2764 1764 q 2749 1749 2764 1764 q 2715 1715 2735 1735 q 2674 1674 2694 1696 q 2639 1639 2653 1653 q 2626 1623 2635 1633 q 2618 1611 2618 1613 l 2618 653 l 2396 444 l 2396 1389 l 2375 1389 q 2362 1376 2375 1389 q 2331 1346 2349 1364 q 2294 1309 2313 1328 q 2264 1278 2276 1290 q 2251 1262 2260 1272 q 2243 1250 2243 1251 l 2243 264 l 2042 69 l 2042 2014 m 2278 1250 l 2361 1333 l 2361 389 l 2278 389 l 2278 1250 m 2653 1611 l 2750 1708 l 2750 778 l 2653 778 l 2653 1611 m 1014 2986 l 2958 2986 l 2000 2028 l 56 2028 l 1014 2986 z "},"n":{"ha":3042,"x_min":14,"x_max":3028,"o":"m 14 0 l 639 0 l 868 222 l 868 0 l 2014 0 l 3028 1014 l 3028 3014 l 1000 3014 l 14 2028 l 14 0 l 14 0 m 42 1986 l 1132 1986 l 1132 500 l 1410 500 l 1410 1986 l 2000 1986 l 2000 28 l 896 28 l 896 1514 l 618 1514 l 618 28 l 42 28 l 42 1986 l 42 1986 m 653 1486 l 861 1486 l 861 250 l 847 250 l 653 69 l 653 1486 l 653 1486 m 2042 2014 l 3000 2972 l 3000 1028 l 2042 69 l 2042 2014 l 2042 2014 m 1375 694 l 1375 528 l 1208 528 l 1375 694 l 1375 694 m 1167 2000 l 1861 2694 l 2042 2694 l 1382 2028 l 1382 722 l 1361 722 l 1167 542 l 1167 2000 l 1167 2000 m 1014 2986 l 2958 2986 l 2000 2028 l 1431 2028 l 2111 2722 l 1847 2722 l 1139 2028 l 56 2028 l 1014 2986 l 1014 2986 z "},"o":{"ha":3042,"x_min":14,"x_max":3028,"o":"m 14 0 l 2014 0 l 3028 1014 l 3028 3014 l 1000 3014 l 14 2028 l 14 0 l 14 0 m 42 1986 l 2000 1986 l 2000 28 l 42 28 l 42 1986 l 42 1986 m 2042 2014 l 3000 2972 l 3000 1028 l 2042 69 l 2042 2014 l 2042 2014 m 639 611 l 1389 611 l 1389 1403 l 639 1403 l 639 611 l 639 611 m 1361 1292 l 1361 639 l 708 639 l 1361 1292 l 1361 1292 m 667 1375 l 1361 1375 l 1361 1347 l 667 653 l 667 1375 l 667 1375 m 2389 1778 l 2389 1014 l 2403 1014 l 2778 1389 l 2778 2111 l 2750 2139 l 2389 1778 l 2389 1778 m 2417 1361 l 2708 1361 l 2417 1069 l 2417 1361 l 2417 1361 m 2417 1764 l 2750 2097 l 2750 1403 l 2417 1403 l 2417 1764 l 2417 1764 m 1014 2986 l 2958 2986 l 2000 2028 l 56 2028 l 1014 2986 l 1014 2986 z "},"p":{"ha":3042,"x_min":14,"x_max":3028,"o":"m 14 0 l 764 0 l 1264 493 l 1514 493 l 3028 2014 l 3028 2514 l 2528 3014 l 1000 3014 l 14 2028 l 14 0 l 14 0 m 42 1986 l 1514 1986 l 2000 1500 l 2000 1028 l 1500 521 l 778 521 l 757 500 l 757 28 l 42 28 l 42 1986 l 42 1986 m 792 486 l 1208 486 l 792 69 l 792 486 l 792 486 m 764 1000 l 1264 1000 l 1514 1250 l 1514 1278 l 1278 1514 l 764 1514 l 764 1000 l 764 1000 m 1264 1486 l 1486 1264 l 1250 1028 l 806 1028 l 1264 1486 l 1264 1486 m 792 1486 l 1208 1486 l 792 1069 l 792 1486 l 792 1486 m 2042 1514 l 3000 2472 l 3000 2028 l 2042 1069 l 2042 1514 l 2042 1514 m 1542 2014 l 2514 2986 l 2986 2514 l 2014 1542 l 1542 2014 l 1542 2014 m 1014 2986 l 2458 2986 l 1500 2028 l 56 2028 l 1014 2986 l 1014 2986 z "},"q":{"ha":3042,"x_min":14,"x_max":3028,"o":"m 14 0 l 2014 0 l 3028 1014 l 3028 3014 l 1000 3014 l 14 2028 l 14 0 m 42 1986 l 2000 1986 l 2000 28 l 42 28 l 42 1986 m 2042 2014 l 3000 2972 l 3000 1028 l 2042 69 l 2042 2014 m 514 500 l 1264 500 l 1264 528 l 1069 743 l 1528 743 l 1528 1514 l 514 1514 l 514 500 m 1500 1472 l 1500 1278 l 1000 764 l 1222 528 l 556 528 l 1500 1472 m 542 1486 l 1458 1486 l 542 569 l 542 1486 m 1500 1222 l 1500 778 l 1056 778 l 1500 1222 m 2507 1222 l 2507 1014 l 2528 1014 l 2778 1264 l 2778 2250 l 2750 2250 l 2389 1889 l 2375 1139 l 2375 1125 l 2403 1125 l 2507 1222 m 2542 1236 l 2708 1236 l 2542 1069 l 2542 1236 m 2417 1236 l 2458 1236 l 2417 1194 l 2417 1236 m 2417 1875 l 2750 2208 l 2750 1278 l 2417 1278 l 2417 1875 m 1014 2986 l 2958 2986 l 2000 2028 l 56 2028 l 1014 2986 z "},"r":{"ha":3042,"x_min":14,"x_max":3028,"o":"m 14 0 l 764 0 l 1257 472 l 1257 0 l 2014 0 l 2535 514 l 2535 743 l 2764 743 l 3028 1014 l 3028 1514 l 2667 1889 l 3028 2264 l 3028 2764 l 2778 3014 l 1000 3014 l 14 2028 l 14 0 l 14 0 m 42 1986 l 1764 1986 l 2000 1750 l 2000 1278 l 1751 1014 l 2000 750 l 2000 28 l 1285 28 l 1285 507 l 1028 764 l 757 764 l 757 28 l 42 28 l 42 1986 l 42 1986 m 792 736 l 1014 736 l 1236 514 l 792 69 l 792 736 l 792 736 m 2042 764 l 2500 1222 l 2500 528 l 2042 69 l 2042 764 l 2042 764 m 2535 1256 l 2292 1514 l 2389 1611 l 2750 1250 l 2750 778 l 2535 778 l 2535 1256 l 2535 1256 m 1792 1014 l 2264 1486 l 2486 1264 l 2014 792 l 1792 1014 l 1792 1014 m 2792 1264 l 3000 1472 l 3000 1028 l 2792 819 l 2792 1264 l 2792 1264 m 764 1250 l 1264 1250 l 1514 1500 l 1514 1514 l 764 1514 l 764 1250 l 764 1250 m 1014 1486 l 1458 1486 l 1250 1278 l 806 1278 l 1014 1486 l 1014 1486 m 2417 1639 l 2639 1861 l 2986 1514 l 2764 1292 l 2417 1639 l 2417 1639 m 792 1486 l 958 1486 l 792 1319 l 792 1486 l 792 1486 m 2042 1764 l 3000 2722 l 3000 2278 l 2042 1319 l 2042 1764 l 2042 1764 m 1792 2014 l 2764 2986 l 2986 2764 l 2014 1792 l 1792 2014 l 1792 2014 m 1014 2986 l 2708 2986 l 1750 2028 l 56 2028 l 1014 2986 l 1014 2986 z "},"s":{"ha":3042,"x_min":14,"x_max":3028,"o":"m 14 0 l 2014 0 l 3028 1014 l 3028 1521 l 2806 1521 l 3028 1764 l 3028 3014 l 1000 3014 l 14 2028 l 14 743 l 208 743 l 14 528 l 14 0 l 14 0 m 42 493 l 1528 493 l 1528 771 l 42 771 l 42 1986 l 2000 1986 l 2000 1521 l 514 1521 l 514 1243 l 2000 1243 l 2000 28 l 42 28 l 42 493 l 42 493 m 2042 1264 l 2778 2014 l 2778 2250 l 2750 2264 l 2042 1569 l 2042 2014 l 3000 2972 l 3000 1778 l 2264 1028 l 2264 750 l 3000 1472 l 3000 1028 l 2042 69 l 2042 1264 l 2042 1264 m 264 736 l 1500 736 l 1500 528 l 56 528 l 264 736 l 264 736 m 2292 1014 l 2764 1486 l 2958 1486 l 2292 819 l 2292 1014 l 2292 1014 m 764 1493 l 2014 1493 l 2750 2222 l 2750 2028 l 2000 1278 l 556 1278 l 764 1493 l 764 1493 m 542 1486 l 708 1486 l 542 1319 l 542 1486 l 542 1486 m 1014 2986 l 2958 2986 l 2000 2028 l 56 2028 l 1014 2986 l 1014 2986 z "},"t":{"ha":3042,"x_min":14,"x_max":3028,"o":"m 757 0 l 1264 0 l 1764 493 l 2264 493 l 2660 875 l 2660 1889 l 3028 2264 l 3028 3014 l 1000 3014 l 14 2028 l 14 1243 l 757 1243 l 757 0 l 757 0 m 785 1271 l 42 1271 l 42 1986 l 2000 1986 l 2000 1271 l 1257 1271 l 1257 28 l 785 28 l 785 1271 l 785 1271 m 1292 1236 l 1750 1236 l 1750 528 l 1292 69 l 1292 1236 l 1292 1236 m 1792 1243 l 2014 1243 l 2250 1472 l 2250 528 l 1792 528 l 1792 1243 l 1792 1243 m 2285 1444 l 2264 1528 l 2042 1319 l 2042 2014 l 3000 2972 l 3000 2278 l 2625 1889 l 2625 903 l 2285 569 l 2285 1444 l 2285 1444 m 1014 2986 l 2958 2986 l 2000 2028 l 56 2028 l 1014 2986 l 1014 2986 z "},"u":{"ha":3042,"x_min":14,"x_max":3028,"o":"m 14 0 l 2014 0 l 3028 1014 l 3028 3014 l 1000 3014 l 14 2028 l 14 0 l 14 0 m 42 1986 l 757 1986 l 757 500 l 1285 500 l 1285 1986 l 2000 1986 l 2000 28 l 42 28 l 42 1986 l 42 1986 m 2042 2014 l 2382 2347 l 2382 903 l 2403 903 l 2646 1125 l 2646 2625 l 3000 2972 l 3000 1028 l 2042 69 l 2042 2014 l 2042 2014 m 1250 972 l 1250 528 l 806 528 l 1250 972 l 1250 972 m 792 2014 l 1375 2597 l 1375 2153 l 1257 2028 l 1257 1028 l 792 569 l 792 2014 l 792 2014 m 2410 2375 l 1611 2375 l 1417 2194 l 1417 2611 l 2611 2611 l 2611 1153 l 2410 958 l 2410 2375 l 2410 2375 m 1014 2986 l 2958 2986 l 2625 2653 l 1389 2653 l 750 2028 l 56 2028 l 1014 2986 l 1014 2986 m 1639 2361 l 2319 2347 l 2000 2028 l 1306 2028 l 1639 2361 l 1639 2361 z "},"v":{"ha":3042,"x_min":14,"x_max":3028,"o":"m 764 0 l 1264 0 l 3028 1764 l 3028 3014 l 2250 3014 l 1785 2569 l 1785 3014 l 1000 3014 l 14 2028 l 14 750 l 764 0 l 764 0 m 42 764 l 42 1986 l 757 1986 l 757 500 l 1285 500 l 1285 1986 l 2000 1986 l 2000 778 l 1250 28 l 778 28 l 42 764 l 42 764 m 1250 972 l 1250 528 l 806 528 l 1250 972 l 1250 972 m 792 2014 l 1750 2972 l 1750 2528 l 1257 2028 l 1257 1028 l 792 569 l 792 2014 l 792 2014 m 2042 2014 l 3000 2972 l 3000 1778 l 2042 819 l 2042 2014 l 2042 2014 m 1014 2986 l 1708 2986 l 750 2028 l 56 2028 l 1014 2986 l 1014 2986 m 2264 2986 l 2958 2986 l 2000 2028 l 1306 2028 l 2264 2986 l 2264 2986 z "},"w":{"ha":3042,"x_min":14,"x_max":3028,"o":"m 514 0 l 1514 0 l 3028 1514 l 3028 3014 l 1000 3014 l 14 2028 l 14 500 l 514 0 m 42 514 l 42 1986 l 507 1986 l 507 750 l 750 514 l 785 514 l 785 1736 l 1257 1736 l 1257 514 l 1278 514 l 1535 764 l 1535 1986 l 2000 1986 l 2000 528 l 1500 28 l 528 28 l 42 514 m 542 764 l 542 2014 l 1250 2722 q 1250 2686 1250 2713 q 1251 2633 1250 2661 q 1251 2578 1251 2604 q 1251 2542 1251 2551 q 1251 2496 1251 2525 q 1251 2438 1251 2467 q 1250 2386 1250 2408 q 1250 2361 1250 2364 q 1248 2268 1250 2324 q 1244 2160 1246 2213 q 1240 2072 1242 2108 q 1236 2035 1238 2035 l 1014 2035 l 757 1778 l 757 556 l 542 764 m 1292 1764 l 1500 1972 l 1500 778 l 1292 569 l 1292 1764 m 2042 2014 l 3000 2972 l 3000 1528 l 2042 569 l 2042 2014 m 1028 2000 l 1472 2000 l 1250 1778 l 806 1778 l 1028 2000 m 1014 2986 l 2958 2986 l 2000 2028 l 1556 2028 l 2278 2764 l 1250 2764 l 500 2028 l 56 2028 l 1014 2986 m 1292 2736 l 2000 2736 l 2000 2514 l 1514 2042 l 1275 2042 q 1279 2389 1275 2215 q 1292 2736 1283 2563 m 2042 2736 l 2208 2736 l 2042 2569 l 2042 2736 z "},"x":{"ha":3042,"x_min":14,"x_max":3028,"o":"m 14 0 l 514 0 l 1264 736 l 1507 500 l 1507 0 l 2014 0 l 3028 1014 l 3028 1763 l 2792 2014 l 3028 2264 l 3028 3014 l 2500 3014 l 1764 2292 l 1535 2514 l 1535 3014 l 1000 3014 l 14 2028 l 14 1250 l 236 1014 l 14 778 l 14 0 l 14 0 m 42 764 l 276 1014 l 42 1264 l 42 1986 l 507 1986 l 507 1500 l 764 1250 l 1264 1250 l 1535 1514 l 1535 1986 l 2000 1986 l 2000 1278 l 1751 1014 l 2000 750 l 2000 28 l 1535 28 l 1535 507 l 1278 764 l 750 764 l 507 528 l 507 28 l 42 28 l 42 764 l 42 764 m 542 514 l 764 736 l 1208 736 l 542 69 l 542 514 l 542 514 m 2042 764 l 3000 1722 l 3000 1028 l 2042 69 l 2042 764 l 2042 764 m 1792 1014 l 2764 1986 l 2986 1764 l 2014 792 l 1792 1014 l 1792 1014 m 1500 1972 l 1500 1528 l 1250 1278 l 806 1278 l 1500 1972 l 1500 1972 m 542 1514 l 1514 2486 l 1736 2264 l 764 1292 l 542 1514 l 542 1514 m 2042 2014 l 3000 2972 l 3000 2278 l 2042 1319 l 2042 2014 l 2042 2014 m 542 2014 l 1500 2972 l 1500 2528 l 542 1569 l 542 2014 l 542 2014 m 1014 2986 l 1458 2986 l 500 2028 l 56 2028 l 1014 2986 l 1014 2986 m 2514 2986 l 2958 2986 l 2000 2028 l 1556 2028 l 2514 2986 l 2514 2986 z "},"y":{"ha":3042,"x_min":14,"x_max":3028,"o":"m 757 0 l 1264 0 l 2285 1014 l 2285 2014 l 3028 2764 l 3028 3014 l 2500 3014 l 2014 2542 l 1528 3014 l 1000 3014 l 14 2028 l 14 1750 l 521 1243 l 757 1243 l 757 0 l 757 0 m 785 1250 l 764 1271 l 528 1271 l 42 1764 l 42 1986 l 514 1986 l 1014 1500 l 1514 1986 l 2000 1986 l 2000 1778 l 1500 1271 l 1278 1271 l 1257 1250 l 1257 28 l 785 28 l 785 1250 l 785 1250 m 1292 1243 l 1514 1243 l 2250 1972 l 2250 1028 l 1292 69 l 1292 1243 l 1292 1243 m 542 2014 l 1514 2986 l 1986 2514 l 1014 1542 l 542 2014 l 542 2014 m 2042 2014 l 3000 2972 l 3000 2778 l 2042 1819 l 2042 2014 l 2042 2014 m 1014 2986 l 1458 2986 l 500 2028 l 56 2028 l 1014 2986 l 1014 2986 m 2514 2986 l 2958 2986 l 2000 2028 l 1556 2028 l 2514 2986 l 2514 2986 z "},"z":{"ha":3042,"x_min":14,"x_max":3028,"o":"m 14 0 l 2014 0 l 3028 1014 l 3028 1521 l 2056 1521 l 3028 2514 l 3028 3014 l 1000 3014 l 14 2028 l 14 1493 l 958 1493 l 14 528 l 14 0 m 42 514 l 1014 1500 l 1014 1521 l 42 1521 l 42 1986 l 2000 1986 l 2000 1528 l 1014 528 q 1013 526 1014 528 q 1013 521 1013 524 q 1013 517 1013 519 q 1014 514 1014 514 q 1022 501 1017 508 q 1028 493 1026 493 l 2000 493 l 2000 28 l 42 28 l 42 514 m 2042 514 l 3000 1472 l 3000 1028 l 2042 69 l 2042 514 m 2014 1486 l 2958 1486 l 2000 528 l 1056 528 l 2014 1486 m 2042 2014 l 3000 2972 l 3000 2528 l 2042 1569 l 2042 2014 m 1014 2986 l 2958 2986 l 2000 2028 l 56 2028 l 1014 2986 z "},"":{"ha":0,"x_min":0,"x_max":0,"o":""},"":{"ha":694,"x_min":0,"x_max":0,"o":""}}}
